<?xml version="1.0" encoding="utf-8"?>
<!-- Generator: Adobe Illustrator 16.0.0, SVG Export Plug-In . SVG Version: 6.00 Build 0)  -->
<!DOCTYPE svg PUBLIC "-//W3C//DTD SVG 1.1//EN" "http://www.w3.org/Graphics/SVG/1.1/DTD/svg11.dtd">
<svg version="1.1" id="logo-svg" xmlns="http://www.w3.org/2000/svg" xmlns:xlink="http://www.w3.org/1999/xlink" x="0px" y="0px"
	 width="343.06px" height="70.588px" viewBox="0 0 343.06 70.588" enable-background="new 0 0 343.06 70.588" xml:space="preserve">
<g>
	<defs>
		<rect id="SVGID_1_" x="-439.001" y="-360" width="1224" height="792"/>
	</defs>
	<clipPath id="SVGID_2_">
		<use xlink:href="#SVGID_1_"  overflow="visible"/>
	</clipPath>
	<path clip-path="url(#SVGID_2_)" fill="#666666" d="M233.007,54.581c-3.379,0-4.435-1.408-4.435-6.124V35.215h8.87v-6.4h-8.87
		l0.069-9.223h-5.465c-1.136,7.755-1.786,9.575-8.967,10.067v5.556h6.336v13.663v2.604c0,6.267,3.38,9.575,9.575,9.575
		c3.73,0,6.688-0.704,9.715-2.394l-1.197-5.28C236.034,54.299,234.626,54.581,233.007,54.581"/>
	<path clip-path="url(#SVGID_2_)" fill="#666666" d="M162.703,27.779c-8.633,0-16.45,6.572-16.45,17.097
		c0,10.509,7.339,16.534,16.556,16.534c5.184,0,10.169-1.598,13.087-5.063l-2.988-4.671c-2.971,2.178-5.866,2.935-8.686,2.935
		c-4.943,0-8.982-2.741-9.49-8.081h21.89c0,0,0.261-0.751,0.261-4.08C176.884,33.266,170.302,27.779,162.703,27.779 M154.999,40.722
		c0.348-2.675,2.841-6.505,7.458-6.505c5.049,0,6.922,4.188,7.176,6.505H154.999z"/>
	<path clip-path="url(#SVGID_2_)" fill="#666666" d="M344.256,53.384c-2.604,0.915-4.013,1.197-5.632,1.197
		c-3.379,0-4.435-1.408-4.435-6.125V35.214h8.87v-6.399h-8.87l0.069-9.223h-5.465c-1.136,7.754-1.786,9.575-8.967,10.067v5.555
		h6.336v13.664v2.604c0,6.267,3.379,9.575,9.575,9.575c3.73,0,6.687-0.705,9.715-2.394L344.256,53.384z"/>
	<polygon clip-path="url(#SVGID_2_)" fill="#666666" points="94.44,41.509 111.509,41.509 111.509,34.325 94.44,34.325 94.44,23.81 
		114.169,23.81 114.169,16.626 86.115,16.626 86.115,60.424 114.464,60.424 114.464,53.239 94.44,53.239 	"/>
	<polygon clip-path="url(#SVGID_2_)" fill="#666666" points="272.146,45.986 250.817,16.625 243.574,16.625 243.574,60.424 
		251.408,60.424 251.408,29.992 273.388,60.424 280.007,60.424 280.007,16.625 272.146,16.625 	"/>
	<polygon clip-path="url(#SVGID_2_)" fill="#666666" points="138.905,28.814 130.692,50.167 122.549,28.814 113.916,28.814 
		126.748,60.453 133.863,60.453 146.98,28.814 	"/>
	<path clip-path="url(#SVGID_2_)" fill="#666666" d="M187.021,27.833c1.407,0.845,2.252,1.827,2.604,4.643
		c3.04-3.012,6.688-4.643,10.912-4.643c6.476,0,10.77,4.646,10.77,11.544v21.049h-8.095V42.123c0-5.139-1.76-6.776-5.562-6.776
		c-2.816,0-4.998,1.197-7.532,4.154v20.925h-8.096V41.349c0-7.391-0.352-9.222-2.111-11.334L187.021,27.833z"/>
	<path clip-path="url(#SVGID_2_)" fill="#666666" d="M315.797,49.195c0,3.943,0.14,4.788,0.915,5.563
		c0.562,0.634,1.752,0.797,2.808,0.727v5.31c-1.073,0.436-2.949,0.545-4.005,0.545c-4.084,0-6.32-1.484-7.042-4.131
		c-3.521,3.38-6.408,4.201-10.421,4.201c-4.295,0-8.099-1.902-9.718-4.858c-1.057-1.972-1.408-4.155-1.408-8.239V28.808h8.098v18.66
		c0,4.859,1.831,6.384,5.634,6.384c2.745,0,4.437-0.845,7.041-3.521V28.808h8.099V49.195z"/>
	<path clip-path="url(#SVGID_2_)" fill="#7B9A24" d="M34.025,14.715c2.125,0,4.233,0.887,4.233,0.887S43.209,3.984,50.172,0.486
		c1.497-0.752,2.409,0.071,3.268,1.626c0.816,1.475,2.708,5.791,3.094,11.704c0.282,4.326-1.976,7.697-1.976,7.697
		s12.949,10.618,12.949,21.03c0,3.169-0.912,5.562-1.491,6.764c-0.237,0.491-0.452,0.444-0.469-0.101
		c-0.108-3.652-1.447-13.61-11.871-13.61c-10.211,0-14.946,15.175-15.894,24.578c-0.012,0.127-0.118,0.218-0.245,0.218h-7.022
		c-0.127,0-0.233-0.091-0.245-0.218c-0.948-9.403-5.683-24.578-15.894-24.578c-10.424,0-11.763,9.958-11.871,13.61
		c-0.017,0.545-0.232,0.592-0.469,0.101c-0.579-1.201-1.491-3.595-1.491-6.764c0-10.412,12.949-21.03,12.949-21.03
		s-2.258-3.371-1.976-7.697c0.386-5.913,2.278-10.229,3.094-11.704c0.859-1.555,1.771-2.378,3.268-1.626
		c6.962,3.498,11.913,15.116,11.913,15.116S31.9,14.715,34.025,14.715"/>
	<path clip-path="url(#SVGID_2_)" fill="#666666" d="M34.025,70.822L34.025,70.822c1.973,0,4.071-2.713,4.687-4.147
		c0.588-1.369-0.416-2.783-1.857-2.783h-2.825h-0.01h-2.825c-1.441,0-2.445,1.414-1.857,2.783
		C29.955,68.109,32.053,70.822,34.025,70.822"/>
	<path clip-path="url(#SVGID_2_)" fill="#666666" d="M13.054,59.721c0.268-0.086,0.541-0.166,0.824-0.23
		c1.839-0.412,3.615-0.232,4.978,0.38c0.865-1.498,0.955-3.881,0.078-6.27c-1.26-3.431-4.037-5.567-6.201-4.772
		c-2.165,0.795-2.898,4.222-1.637,7.652C11.571,57.773,12.262,58.883,13.054,59.721"/>
	<path clip-path="url(#SVGID_2_)" fill="#666666" d="M54.173,59.491c0.283,0.063,0.556,0.143,0.824,0.229
		c0.792-0.838,1.483-1.946,1.958-3.24c1.261-3.432,0.528-6.856-1.637-7.652c-2.164-0.795-4.94,1.342-6.201,4.772
		c-0.877,2.389-0.786,4.771,0.078,6.27C50.558,59.257,52.334,59.079,54.173,59.491"/>
</g>
</svg>
